<svg width="500" height="176" viewBox="0 0 500 176" fill="none" xmlns="http://www.w3.org/2000/svg">
<path d="M140.618 109.029L137.848 108.186C137.677 108.133 137.494 108.219 137.426 108.378L137.066 109.247C137.051 109.283 137.029 109.318 137.002 109.348L131.77 114.93C131.517 115.199 131.065 114.936 131.193 114.593L132.549 110.976C132.561 110.941 132.583 110.908 132.607 110.879L134.033 109.191C134.067 109.15 134.11 109.12 134.162 109.097C134.47 108.964 134.418 108.526 134.088 108.464L132.387 108.151C132.237 108.124 132.085 108.195 132.018 108.328L130.998 110.27C130.998 110.27 130.985 110.296 130.979 110.308L129.022 115.56C129.022 115.56 129.012 115.575 129.003 115.58C128.796 115.672 126.099 116.851 123.521 117.064C123.179 117.094 122.861 117.108 122.562 117.114C121.692 117.129 120.94 116.538 120.785 115.71L120.504 114.191C120.504 114.191 120.504 114.191 120.504 114.189L118.94 109.315C118.94 109.315 118.94 109.315 118.94 109.312C118.934 109.274 118.638 107.631 120.739 104.415L123.836 100.739C123.952 100.6 124.098 100.491 124.266 100.414L125.326 99.9292C125.72 99.7489 125.989 99.3795 126.029 98.9569L127.323 85.4955C127.397 84.7212 128.114 84.0888 128.918 84.0888C129.617 84.0888 130.359 83.5657 130.57 82.9274L130.897 81.9462C130.958 81.76 130.973 81.562 130.936 81.367L127.238 61.4364C127.21 61.2857 127.152 61.1379 127.067 61.0079L125.317 58.3245C124.984 57.8132 125.094 57.1424 125.577 56.7611L125.653 56.702C126.132 56.3208 126.242 55.6559 125.919 55.1446C120.898 47.2273 115.098 41.0714 113.415 39.3485C113.116 39.0441 113.006 38.6097 113.125 38.2048L113.156 38.0955C113.351 37.4187 112.905 36.7272 112.194 36.5971C109.146 36.0415 101.569 34.756 97.3722 34.8594C92.4582 34.9806 70.8202 36.9015 67.4424 37.203C67.1553 37.2296 66.8865 37.3507 66.6819 37.5517L57.8648 46.193C57.2204 46.8254 57.4861 47.8952 58.3596 48.173L58.5734 48.241C58.9063 48.3474 59.2117 48.3356 59.4865 48.2233L61.9878 47.2066C62.1558 47.1387 62.3329 47.1062 62.5162 47.115L70.1422 47.4017L80.2633 47.4992C80.2878 47.4992 80.3122 47.4992 80.3367 47.4992L85.9958 47.2332C86.4112 47.2126 86.7899 46.9939 87.0006 46.6481L87.8069 45.333C88.1337 44.7981 88.5613 44.3252 89.0682 43.9381L90.696 42.6939C91.6703 41.9492 92.8858 41.565 94.1258 41.6064L95.72 41.6595C97.2134 41.7098 98.6275 42.3363 99.6445 43.3973L101.281 45.1084C101.721 45.5665 102.008 46.1398 102.109 46.7574C102.405 48.572 101.969 50.4279 100.891 51.9381L99.8124 53.4482C99.1436 54.3851 98.1449 55.0589 97.0027 55.3396L96.3644 55.4963C95.1977 55.7829 93.9639 55.6913 92.8583 55.2332L90.2532 54.1516C89.3125 53.7615 88.4849 53.1527 87.8466 52.3784L86.3257 50.5402C86.0875 50.2506 85.724 50.0851 85.3392 50.091L79.173 50.1826L67.3721 49.8841H65.5611C64.3791 49.8841 63.8691 51.3322 64.8037 52.0297L68.2364 54.5949C68.4075 54.7249 68.6121 54.8047 68.8289 54.8343L81.8667 56.5277C81.9156 56.5365 81.9675 56.5454 82.0164 56.5572L87.4679 57.9433C90.4334 58.6969 91.8963 61.8265 90.7052 64.4272C90.5403 64.7877 90.3143 65.1217 90.0608 65.432C88.5735 67.2643 86.9792 69.0138 85.2842 70.6688L52.1873 102.97C51.5093 103.632 51.8208 104.752 52.7462 104.998L55.1345 105.633C56.0446 105.875 56.405 106.936 55.8247 107.654L30.7936 132.053C30.2194 132.612 30.3293 133.54 31.0165 133.959L35.5946 136.755C36.0771 137.051 36.7062 136.998 37.1277 136.625L43.868 130.679C44.8423 129.822 46.354 130.785 45.9265 131.988L43.0129 140.163C42.8205 140.703 43.0373 141.3 43.5351 141.605L45.3065 142.684C45.4317 142.76 45.5691 142.816 45.7127 142.846C46.861 143.08 48.0857 143.059 49.3256 142.955C49.6219 142.932 49.8998 142.811 50.1105 142.613L55.5193 137.547C56.3378 136.782 57.703 137.361 57.6755 138.463L57.5991 141.295C57.5808 141.986 58.155 142.556 58.8696 142.556H64.9747C65.5091 142.556 65.9856 142.231 66.1688 141.747C68.4472 135.721 69.568 132.136 70.3132 129.627C70.8354 127.874 72.3747 126.583 74.2407 126.338L84.3986 124.771C85.947 124.532 87.4954 125.206 88.3414 126.483L89.8928 128.829L91.1328 130.904C91.71 131.87 92.5163 132.689 93.4844 133.292L95.1428 134.326L95.1794 134.317C96.6637 135.771 99.8124 138.564 100.194 138.901C100.222 138.924 100.243 138.951 100.258 138.981L100.582 139.53C100.695 139.722 100.588 139.965 100.368 140.018L97.6899 140.68C97.6257 140.695 97.5677 140.73 97.5219 140.777L96.7278 141.608C96.5629 141.779 96.6301 142.057 96.853 142.143L97.8273 142.518C97.8975 142.545 97.9708 142.548 98.0441 142.53L102.757 141.309C102.781 141.303 102.802 141.3 102.827 141.297L112.951 140.771C112.972 140.771 112.997 140.771 113.018 140.771L115.336 141.091C115.367 141.094 115.394 141.102 115.422 141.114L116.753 141.658C117.053 141.779 117.343 141.469 117.19 141.194L115.807 138.723C115.721 138.57 115.529 138.508 115.364 138.579L114.478 138.96C114.441 138.975 114.402 138.986 114.359 138.986L106.586 139.471C106.211 139.495 106.073 138.998 106.412 138.839L109.989 137.154C110.022 137.136 110.062 137.128 110.099 137.122L112.337 136.873C112.392 136.867 112.444 136.873 112.496 136.891C112.814 137.003 113.092 136.655 112.896 136.389L111.9 135.017C111.812 134.896 111.653 134.846 111.506 134.893L109.369 135.603C109.369 135.603 109.353 135.609 109.347 135.611L104.336 137.648C104.296 137.662 104.256 137.671 104.213 137.674C103.868 137.683 102.192 137.707 101.779 137.337C100.762 136.418 99.959 135.52 99.336 134.71C98.7832 133.992 98.6855 133.04 99.0947 132.237L101.355 127.795C101.645 127.224 101.853 126.621 101.975 125.998L102.961 120.909C102.964 120.885 102.973 120.862 102.983 120.841L104.003 118.509C104.036 118.432 104.1 118.37 104.18 118.335L105.575 117.729C106.391 117.374 107.31 117.318 108.165 117.566C110.477 118.243 113.876 119.254 114.133 119.419C114.493 119.653 117.123 119.883 117.55 119.919C117.59 119.922 117.627 119.919 117.667 119.91L119.319 119.487C119.334 119.484 119.349 119.481 119.368 119.478C122.086 119.18 126.157 118.621 126.997 118.503C127.094 118.488 127.195 118.518 127.272 118.583L127.717 118.961C127.843 119.068 127.873 119.248 127.785 119.387L126.255 121.798C126.221 121.852 126.203 121.917 126.203 121.982L126.239 123.545C126.239 123.572 126.267 123.586 126.291 123.578L127.675 123.028C127.742 123.001 127.8 122.954 127.84 122.892L130.344 118.843C130.356 118.822 130.371 118.805 130.387 118.787L137.277 111.591C137.292 111.576 137.307 111.561 137.326 111.546L139.219 110.217C139.244 110.199 139.268 110.187 139.295 110.175L140.642 109.667C140.945 109.552 140.929 109.135 140.621 109.04L140.618 109.029ZM90.7541 104.055L90.2563 105.423C90.0333 106.032 89.4927 106.478 88.8361 106.587C86.0478 107.054 78.0186 108.077 67.1583 106.709C66.5109 106.626 66.5689 105.704 67.2225 105.701C73.2573 105.692 81.9889 105.21 89.7126 103.003C90.3754 102.814 90.9801 103.422 90.751 104.055H90.7541ZM122.892 74.7146C123.277 76.3518 123.292 77.794 123.185 78.9111C123.103 79.7563 121.985 80.0666 121.475 79.3751C120.168 77.6108 118.418 75.8937 117.315 74.8742C116.698 74.3038 116.369 73.4999 116.427 72.6784C116.482 71.907 116.512 70.9436 116.527 70.125C116.543 69.3625 117.459 68.9458 118.07 69.4275C119.823 70.8136 121.512 72.6577 122.278 73.5354C122.577 73.8753 122.788 74.2801 122.889 74.7146H122.892ZM116.475 58.9924C117.853 59.6426 118.98 60.343 119.591 60.7478C119.92 60.9665 120.171 61.2739 120.305 61.6374C120.809 62.9998 121.209 64.7434 121.493 66.224C121.67 67.1431 120.556 67.7667 119.826 67.1549C118.684 66.1944 117.48 65.3433 116.763 64.8587C116.359 64.5838 116.081 64.173 115.987 63.7061C115.764 62.5949 115.382 61.2532 115.049 60.1686C114.796 59.347 115.675 58.62 116.472 58.9953L116.475 58.9924ZM114.744 95.0175C114.371 95.6499 113.794 96.5306 113.079 97.3108C112.722 97.7009 112.056 97.4349 112.078 96.9148C112.157 95.1505 112.242 92.0179 112.01 89.4467C111.955 88.832 112.807 88.5867 113.104 89.1305C113.751 90.3186 114.454 91.7696 114.942 93.2325C115.141 93.8265 115.061 94.4767 114.741 95.0175H114.744ZM117.505 89.2872C116.433 87.0825 115.275 85.3921 114.515 84.3873C114.011 83.7223 113.876 82.8623 114.148 82.0821C114.399 81.364 114.637 80.5986 114.835 79.9307C115.083 79.0943 116.198 78.8756 116.769 79.5465C118.653 81.763 119.743 83.61 120.262 84.6001C120.519 85.0906 120.614 85.6521 120.504 86.193C120.269 87.3485 119.899 88.3947 119.539 89.2369C119.169 90.0969 117.917 90.1294 117.508 89.2872H117.505Z" fill="white"/>
<path d="M91.7717 53.7785C92.6757 54.1715 93.7263 54.0829 94.5478 53.548L94.9846 53.2642C95.7756 52.75 96.249 51.8871 96.249 50.965V46.3518C96.249 45.4682 95.8153 44.6407 95.0823 44.1176L94.838 43.9432C93.8729 43.2546 92.5657 43.2221 91.564 43.8605L91.3686 43.9846C90.7913 44.3511 90.3729 44.9096 90.1836 45.5509L90.1378 45.7075C89.5331 47.7851 89.5575 49.9868 90.205 52.0555C90.4462 52.8239 91.0204 53.4534 91.7747 53.7814L91.7717 53.7785Z" fill="white"/>
<path d="M187.233 77.1612H182.587V99.4619H166.248V41.21H182.587V63.0969H187.318L202.497 41.21H222.363L200.564 69.6281L224.3 99.4619H204.219L187.236 77.1612H187.233Z" fill="white"/>
<path d="M243.771 62.7659H266.044V41.2129H282.383V99.4648H266.044V77.2882H243.771V99.4648H227.432V41.2129H243.771V62.7659Z" fill="white"/>
<path d="M351.742 99.4648H334.413L330.416 88.3558H307.928L303.973 99.4648H286.904L309.694 41.2129H328.959L351.748 99.4648H351.742ZM313.001 74.2502H325.343L319.195 57.0237L313.004 74.2502H313.001Z" fill="white"/>
<path d="M413.014 70.337C413.014 87.7289 399.814 100.543 381.193 100.543C362.573 100.543 349.373 87.7289 349.373 70.337C349.373 52.9451 362.573 40.1279 381.193 40.1279C399.814 40.1279 413.014 52.9421 413.014 70.337ZM366.36 70.337C366.36 79.2413 372.422 85.4002 381.193 85.4002C389.965 85.4002 396.027 79.2413 396.027 70.337C396.027 61.4327 389.965 55.2738 381.193 55.2738C372.422 55.2738 366.36 61.4327 366.36 70.337Z" fill="white"/>
<path d="M461.729 59.2287C457.774 57.0654 451.797 54.3613 444.357 54.3613C439.971 54.3613 436.618 55.5257 436.618 58.147C436.618 61.4333 442.766 61.7673 448.917 62.9317L450.853 63.307C463.28 65.6358 469.602 71.4193 469.602 80.365C469.602 95.0942 456.744 100.544 443.933 100.544C433.139 100.544 423.336 98.0465 416.455 93.3033L424.454 80.4034C429.227 83.1902 434.987 86.3938 444.146 86.3938C448.532 86.3938 451.757 85.2294 451.757 82.3568C451.757 79.3188 448.016 78.778 440.533 77.5308L438.255 77.1555C424.411 74.8681 418.648 69.0846 418.947 58.7647C419.25 47.6143 428.922 40.167 443.371 40.167C451.238 40.167 458.336 40.9561 468.783 46.2845L461.732 59.2257L461.729 59.2287Z" fill="white"/>
<path d="M193.599 110.931L190.038 114.274C188.151 112.093 185.32 110.745 181.972 110.745C175.837 110.745 171.332 115.042 171.332 121.31C171.332 127.578 175.837 131.875 181.759 131.875C187.228 131.875 190.447 129.136 191.22 124.339H183.261V119.98H196.476C196.497 120.353 196.519 120.728 196.519 121.1C196.519 129.446 191.049 136.359 181.759 136.359C174.013 136.359 166.25 131.004 166.25 121.31C166.25 112.571 172.856 106.238 181.975 106.238C186.758 106.238 190.878 107.982 193.602 110.928L193.599 110.931Z" fill="white"/>
<path d="M264.557 135.842H259.344L256.385 128.43H242.785L239.825 135.842H234.783L246.645 106.779H252.695L264.557 135.842ZM244.562 123.988H254.601L249.58 111.452L244.559 123.988H244.562Z" fill="white"/>
<path d="M337.659 135.842H332.812V111.927L324.038 132.996H318.932L310.157 112.155V135.842H305.311V106.779H312.753L321.485 127.537L330.216 106.779H337.659V135.842Z" fill="white"/>
<path d="M403.744 135.842H381.84V106.779H403.463V111.18H386.687V119.005H402.882V123.406H386.687V131.438H403.741V135.839L403.744 135.842Z" fill="white"/>
<path d="M466.786 113.216C464.232 111.638 461.401 110.725 458.356 110.725C454.343 110.725 451.598 112.407 451.598 115.063C451.598 117.472 453.937 118.406 457.84 118.947L459.92 119.216C464.788 119.86 469.595 121.81 469.595 127.207C469.595 133.123 464.061 136.362 457.559 136.362C453.482 136.362 448.593 135.056 445.48 132.458L448.119 128.723C450.178 130.549 454.062 131.92 457.538 131.92C461.462 131.92 464.553 130.301 464.553 127.623C464.553 125.339 462.192 124.281 457.794 123.699L455.455 123.388C450.993 122.786 446.552 120.752 446.552 115.356C446.552 109.522 451.894 106.283 458.393 106.283C462.77 106.283 466.224 107.465 469.247 109.419L466.78 113.216H466.786Z" fill="white"/>
</svg>
